<?xml version="1.0" encoding="UTF-8"?>
<svg version="1.1" xmlns="http://www.w3.org/2000/svg" width="1280" height="1280">
<path d="M0 0 C1.54552233 -0.00104436 3.09104441 -0.00252652 4.63656595 -0.00440437 C8.88121366 -0.00829357 13.12583858 -0.00597097 17.37048591 -0.00262641 C21.98926604 -0.00008828 26.60804269 -0.0033502 31.22682232 -0.00586975 C39.32107943 -0.00948168 47.41532987 -0.0093717 55.50958729 -0.00682259 C67.54592762 -0.00304228 79.58226231 -0.00497272 91.6186026 -0.00803089 C113.11440815 -0.01329914 134.61021073 -0.01283925 156.10601656 -0.00995198 C174.91658619 -0.00743774 193.72715473 -0.00677911 212.53772449 -0.00797462 C213.78482942 -0.00805101 215.03193435 -0.00812739 216.31683034 -0.00820609 C221.37905555 -0.00851743 226.44128076 -0.00883583 231.50350597 -0.00916586 C266.83762137 -0.01144204 302.17173646 -0.01184259 337.50585175 -0.00810242 C338.17178028 -0.00803217 338.83770881 -0.00796192 339.52381699 -0.00788954 C350.33803624 -0.0067446 361.15225548 -0.00552513 371.96647472 -0.00429937 C414.85933134 0.00055725 457.75218485 0.00033129 500.64504147 -0.00452995 C511.45499865 -0.00575114 522.26495583 -0.00696219 533.07491302 -0.00810242 C533.74052007 -0.00817287 534.40612711 -0.00824331 535.09190406 -0.0083159 C571.02281103 -0.01209279 606.95371785 -0.01126037 642.8846249 -0.00891769 C647.93738743 -0.00859696 652.99014995 -0.00828412 658.04291248 -0.00797462 C659.28705926 -0.00789555 660.53120603 -0.00781647 661.81305422 -0.007735 C680.61402535 -0.00659676 699.41499526 -0.00792921 718.21596622 -0.01045418 C739.58931613 -0.01331028 760.9626626 -0.01260533 782.33601207 -0.00717343 C794.30292902 -0.00423258 806.26983853 -0.00405206 818.23675529 -0.00781961 C826.22469944 -0.01005746 834.21263761 -0.00867464 842.20058087 -0.00431484 C846.75537651 -0.0019303 851.31015733 -0.00113471 855.86495251 -0.00472082 C860.00830003 -0.00794981 864.15161958 -0.00658054 868.29496506 -0.00154016 C869.78472449 -0.0005328 871.27448624 -0.00119964 872.76424383 -0.0037461 C880.16691799 -0.01550193 887.38555021 0.1094781 894.72341061 1.12584114 C894.72341061 1.78584114 894.72341061 2.44584114 894.72341061 3.12584114 C901.15841061 3.62084114 901.15841061 3.62084114 907.72341061 4.12584114 C907.72341061 4.78584114 907.72341061 5.44584114 907.72341061 6.12584114 C909.37341061 6.12584114 911.02341061 6.12584114 912.72341061 6.12584114 C912.72341061 6.78584114 912.72341061 7.44584114 912.72341061 8.12584114 C915.36341061 8.45584114 918.00341061 8.78584114 920.72341061 9.12584114 C920.72341061 9.78584114 920.72341061 10.44584114 920.72341061 11.12584114 C921.63091061 11.24959114 922.53841061 11.37334114 923.47341061 11.50084114 C926.31311383 12.04693791 928.24931652 12.69847917 930.72341061 14.12584114 C930.72341061 14.78584114 930.72341061 15.44584114 930.72341061 16.12584114 C932.70341061 16.45584114 934.68341061 16.78584114 936.72341061 17.12584114 C936.72341061 17.78584114 936.72341061 18.44584114 936.72341061 19.12584114 C937.30091061 19.24959114 937.87841061 19.37334114 938.47341061 19.50084114 C940.74676827 20.13232938 942.6487635 21.01442305 944.72341061 22.12584114 C944.72341061 22.78584114 944.72341061 23.44584114 944.72341061 24.12584114 C945.50716061 24.43521614 946.29091061 24.74459114 947.09841061 25.06334114 C949.72341061 26.12584114 949.72341061 26.12584114 951.72341061 27.12584114 C951.72341061 27.78584114 951.72341061 28.44584114 951.72341061 29.12584114 C952.52778561 29.39396614 953.33216061 29.66209114 954.16091061 29.93834114 C955.00653561 30.33021614 955.85216061 30.72209114 956.72341061 31.12584114 C957.05341061 32.11584114 957.38341061 33.10584114 957.72341061 34.12584114 C959.05137351 34.47996458 960.38557667 34.81105669 961.72341061 35.12584114 C963.47341061 36.56334114 963.47341061 36.56334114 964.72341061 38.12584114 C964.72341061 38.78584114 964.72341061 39.44584114 964.72341061 40.12584114 C965.38341061 40.12584114 966.04341061 40.12584114 966.72341061 40.12584114 C968.08517982 41.76935571 969.41303127 43.4410677 970.72341061 45.12584114 C971.56903561 45.95084114 972.41466061 46.77584114 973.28591061 47.62584114 C975.60265415 50.00198837 977.06296823 52.27936849 978.72341061 55.12584114 C979.38341061 55.45584114 980.04341061 55.78584114 980.72341061 56.12584114 C980.72341061 56.78584114 980.72341061 57.44584114 980.72341061 58.12584114 C981.38341061 58.12584114 982.04341061 58.12584114 982.72341061 58.12584114 C983.05341061 59.77584114 983.38341061 61.42584114 983.72341061 63.12584114 C984.38341061 63.12584114 985.04341061 63.12584114 985.72341061 63.12584114 C985.72341061 64.11584114 985.72341061 65.10584114 985.72341061 66.12584114 C986.38341061 66.12584114 987.04341061 66.12584114 987.72341061 66.12584114 C988.05341061 67.77584114 988.38341061 69.42584114 988.72341061 71.12584114 C989.38341061 71.12584114 990.04341061 71.12584114 990.72341061 71.12584114 C991.05341061 73.10584114 991.38341061 75.08584114 991.72341061 77.12584114 C992.38341061 77.12584114 993.04341061 77.12584114 993.72341061 77.12584114 C996.72341061 83.75084114 996.72341061 83.75084114 996.72341061 87.12584114 C997.38341061 87.12584114 998.04341061 87.12584114 998.72341061 87.12584114 C999.05341061 89.76584114 999.38341061 92.40584114 999.72341061 95.12584114 C1000.38341061 95.12584114 1001.04341061 95.12584114 1001.72341061 95.12584114 C1001.72341061 96.77584114 1001.72341061 98.42584114 1001.72341061 100.12584114 C1002.38341061 100.12584114 1003.04341061 100.12584114 1003.72341061 100.12584114 C1004.05341061 104.41584114 1004.38341061 108.70584114 1004.72341061 113.12584114 C1005.38341061 113.12584114 1006.04341061 113.12584114 1006.72341061 113.12584114 C1006.81428951 114.1912513 1006.81428951 114.1912513 1006.90700436 115.27818489 C1006.99079342 116.19728645 1007.07458248 117.11638802 1007.16091061 118.06334114 C1007.24212154 118.97986458 1007.32333248 119.89638802 1007.40700436 120.84068489 C1007.48386037 123.08743846 1007.48386037 123.08743846 1008.72341061 124.12584114 C1008.82196877 126.08377391 1008.84864116 128.04532879 1008.84875977 130.00574058 C1008.85251505 131.93915582 1008.85251505 131.93915582 1008.85634619 133.91162995 C1008.85406886 135.36365382 1008.85170064 136.81567755 1008.84925175 138.26770115 C1008.85029351 139.79973606 1008.85177374 141.33177073 1008.85365611 142.86380485 C1008.85758252 147.11291503 1008.8552034 151.36200277 1008.85187816 155.61111262 C1008.8493579 160.21898157 1008.8525948 164.82684688 1008.85512149 169.43471533 C1008.8587466 177.52356236 1008.85861542 185.61240273 1008.85607433 193.70125008 C1008.85230594 205.72931543 1008.85421823 217.75737512 1008.85728264 229.78544043 C1008.86256033 251.26258623 1008.86208724 272.73972907 1008.85920373 294.21687516 C1008.85669256 313.01201159 1008.85602942 331.80714692 1008.85722637 350.60228348 C1008.85730276 351.8468639 1008.85737914 353.09144432 1008.85745784 354.37373929 C1008.85776916 359.42534418 1008.85808756 364.47694907 1008.85841761 369.52855396 C1008.860695 404.80514635 1008.8610916 440.08173844 1008.85735416 475.35833073 C1008.85728392 476.02366697 1008.85721367 476.68900321 1008.85714129 477.37450116 C1008.85599625 488.18006235 1008.85477683 498.98562354 1008.85355111 509.79118472 C1008.84869483 552.64842475 1008.84891969 595.50566167 1008.8537817 638.36290169 C1008.85500283 649.16173712 1008.85621386 659.96057255 1008.85735416 670.759408 C1008.85745984 671.75671234 1008.85745984 671.75671234 1008.85756764 672.77416425 C1008.86134245 708.6450231 1008.86051293 744.51588181 1008.85816944 780.38674074 C1008.8578487 785.42968818 1008.85753586 790.47263561 1008.85722637 795.51558304 C1008.85714729 796.75737082 1008.85706822 797.99915861 1008.85698674 799.27857633 C1008.85584726 818.0653872 1008.85718328 836.85219686 1008.85970592 855.63900757 C1008.86255882 876.99228104 1008.86186401 898.34555106 1008.85642518 919.6988241 C1008.85347876 931.66272328 1008.85331175 943.62661501 1008.85707136 955.59051401 C1008.8593026 963.56783095 1008.85793849 971.54514189 1008.85356659 979.52245795 C1008.85117272 984.07708399 1008.85040545 988.63169517 1008.85397257 993.18632077 C1008.85717833 997.32143117 1008.85586639 1001.45651338 1008.85079191 1005.59162169 C1008.84977625 1007.08627026 1008.85047281 1008.58092111 1008.85299785 1010.07556789 C1008.85616312 1012.09057411 1008.85266593 1014.10558761 1008.84875977 1016.12059253 C1008.84865813 1017.80063619 1008.84865813 1017.80063619 1008.84855444 1019.51462012 C1008.72341061 1022.12584114 1008.72341061 1022.12584114 1007.72341061 1024.12584114 C1007.4987323 1025.6625298 1007.31544255 1027.20552168 1007.16091061 1028.75084114 C1007.07712154 1029.56810677 1006.99333248 1030.38537239 1006.90700436 1031.22740364 C1006.81612545 1032.1671302 1006.81612545 1032.1671302 1006.72341061 1033.12584114 C1006.06341061 1033.12584114 1005.40341061 1033.12584114 1004.72341061 1033.12584114 C1004.39341061 1037.41584114 1004.06341061 1041.70584114 1003.72341061 1046.12584114 C1003.06341061 1046.12584114 1002.40341061 1046.12584114 1001.72341061 1046.12584114 C1001.72341061 1047.77584114 1001.72341061 1049.42584114 1001.72341061 1051.12584114 C1001.06341061 1051.12584114 1000.40341061 1051.12584114 999.72341061 1051.12584114 C999.39341061 1053.76584114 999.06341061 1056.40584114 998.72341061 1059.12584114 C998.06341061 1059.12584114 997.40341061 1059.12584114 996.72341061 1059.12584114 C996.39341061 1061.43584114 996.06341061 1063.74584114 995.72341061 1066.12584114 C995.06341061 1066.12584114 994.40341061 1066.12584114 993.72341061 1066.12584114 C993.72341061 1067.11584114 993.72341061 1068.10584114 993.72341061 1069.12584114 C993.06341061 1069.12584114 992.40341061 1069.12584114 991.72341061 1069.12584114 C991.39341061 1071.10584114 991.06341061 1073.08584114 990.72341061 1075.12584114 C990.06341061 1075.12584114 989.40341061 1075.12584114 988.72341061 1075.12584114 C988.39341061 1076.77584114 988.06341061 1078.42584114 987.72341061 1080.12584114 C987.06341061 1080.12584114 986.40341061 1080.12584114 985.72341061 1080.12584114 C985.72341061 1081.11584114 985.72341061 1082.10584114 985.72341061 1083.12584114 C985.06341061 1083.12584114 984.40341061 1083.12584114 983.72341061 1083.12584114 C983.39341061 1084.77584114 983.06341061 1086.42584114 982.72341061 1088.12584114 C982.06341061 1088.12584114 981.40341061 1088.12584114 980.72341061 1088.12584114 C980.72341061 1088.78584114 980.72341061 1089.44584114 980.72341061 1090.12584114 C980.06341061 1090.12584114 979.40341061 1090.12584114 978.72341061 1090.12584114 C978.43466061 1090.88896614 978.14591061 1091.65209114 977.84841061 1092.43834114 C976.72341061 1095.12584114 976.72341061 1095.12584114 974.72341061 1098.12584114 C974.06341061 1098.12584114 973.40341061 1098.12584114 972.72341061 1098.12584114 C972.72341061 1098.78584114 972.72341061 1099.44584114 972.72341061 1100.12584114 C971.34841061 1101.75084114 971.34841061 1101.75084114 969.72341061 1103.12584114 C969.06341061 1103.12584114 968.40341061 1103.12584114 967.72341061 1103.12584114 C967.39341061 1104.11584114 967.06341061 1105.10584114 966.72341061 1106.12584114 C966.06341061 1106.12584114 965.40341061 1106.12584114 964.72341061 1106.12584114 C964.72341061 1106.78584114 964.72341061 1107.44584114 964.72341061 1108.12584114 C963.34841061 1109.75084114 963.34841061 1109.75084114 961.72341061 1111.12584114 C961.06341061 1111.12584114 960.40341061 1111.12584114 959.72341061 1111.12584114 C959.72341061 1111.78584114 959.72341061 1112.44584114 959.72341061 1113.12584114 C954.3116459 1117.12584114 954.3116459 1117.12584114 951.72341061 1117.12584114 C951.72341061 1117.78584114 951.72341061 1118.44584114 951.72341061 1119.12584114 C951.06341061 1119.12584114 950.40341061 1119.12584114 949.72341061 1119.12584114 C949.72341061 1119.78584114 949.72341061 1120.44584114 949.72341061 1121.12584114 C948.07341061 1121.45584114 946.42341061 1121.78584114 944.72341061 1122.12584114 C944.72341061 1122.78584114 944.72341061 1123.44584114 944.72341061 1124.12584114 C943.73341061 1124.12584114 942.74341061 1124.12584114 941.72341061 1124.12584114 C941.72341061 1124.78584114 941.72341061 1125.44584114 941.72341061 1126.12584114 C940.07341061 1126.45584114 938.42341061 1126.78584114 936.72341061 1127.12584114 C936.72341061 1127.78584114 936.72341061 1128.44584114 936.72341061 1129.12584114 C934.74341061 1129.45584114 932.76341061 1129.78584114 930.72341061 1130.12584114 C930.72341061 1130.78584114 930.72341061 1131.44584114 930.72341061 1132.12584114 C929.73341061 1132.12584114 928.74341061 1132.12584114 927.72341061 1132.12584114 C927.72341061 1132.78584114 927.72341061 1133.44584114 927.72341061 1134.12584114 C925.41341061 1134.45584114 923.10341061 1134.78584114 920.72341061 1135.12584114 C920.72341061 1135.78584114 920.72341061 1136.44584114 920.72341061 1137.12584114 C918.08341061 1137.45584114 915.44341061 1137.78584114 912.72341061 1138.12584114 C912.72341061 1138.78584114 912.72341061 1139.44584114 912.72341061 1140.12584114 C911.07341061 1140.12584114 909.42341061 1140.12584114 907.72341061 1140.12584114 C907.72341061 1140.78584114 907.72341061 1141.44584114 907.72341061 1142.12584114 C903.43341061 1142.45584114 899.14341061 1142.78584114 894.72341061 1143.12584114 C894.72341061 1143.78584114 894.72341061 1144.44584114 894.72341061 1145.12584114 C894.09692623 1145.18642708 893.47044186 1145.24701302 892.82497311 1145.30943489 C892.00770748 1145.39322395 891.19044186 1145.47701302 890.34841061 1145.56334114 C889.53630123 1145.64455208 888.72419186 1145.72576302 887.88747311 1145.80943489 C885.68068256 1146.01674228 885.68068256 1146.01674228 883.72341061 1147.12584114 C881.72352045 1147.22168669 879.72034756 1147.25106918 877.718162 1147.2511903 C875.78099149 1147.25494558 875.78099149 1147.25494558 873.80468622 1147.25877672 C872.35502716 1147.25649953 870.90536824 1147.25413132 869.45570946 1147.25168228 C867.92220642 1147.25272434 866.38870363 1147.25420478 864.85520139 1147.25608665 C860.60668385 1147.26000888 856.35818879 1147.25763607 852.10967157 1147.25430869 C847.50072152 1147.25178646 842.89177508 1147.25502613 838.28282553 1147.25755203 C830.19366088 1147.26117565 822.1045029 1147.26104685 814.01533794 1147.25850487 C801.98686982 1147.25473517 789.95840736 1147.25664944 777.92993928 1147.25971317 C756.45215312 1147.26498972 734.97436991 1147.26451825 713.49658346 1147.26163426 C694.70210616 1147.25912285 675.90762994 1147.25846007 657.1131525 1147.25965691 C655.2461673 1147.25977148 655.2461673 1147.25977148 653.34146522 1147.25988838 C648.28954041 1147.26019969 643.2376156 1147.26051809 638.18569079 1147.26084814 C602.90945287 1147.26312536 567.63321527 1147.26352249 532.35697746 1147.2597847 C531.69171147 1147.25971445 531.02644547 1147.2596442 530.3410199 1147.25957182 C519.53665544 1147.25842679 508.73229098 1147.25720737 497.92792652 1147.25598165 C455.07060962 1147.2511248 412.21329585 1147.25135077 369.35597897 1147.25621223 C358.55595271 1147.25743336 347.75592646 1147.25864439 336.95590019 1147.2597847 C335.95849017 1147.25989037 335.95849017 1147.25989037 334.94093046 1147.25999818 C299.06987101 1147.26377261 263.19881171 1147.26294363 227.32775217 1147.26059997 C222.2851191 1147.26027923 217.24248602 1147.25996639 212.19985294 1147.25965691 C210.33728988 1147.25953829 210.33728988 1147.25953829 208.43709928 1147.25941728 C189.64938202 1147.25827767 170.86166596 1147.25961403 152.07394886 1147.26213646 C130.72176897 1147.26498882 109.36959253 1147.26429565 88.01741307 1147.25885572 C76.0532985 1147.25590852 64.08919138 1147.2557434 52.12507699 1147.25950189 C44.1489283 1147.26173219 36.17278562 1147.26037078 28.19663782 1147.25599712 C23.64187645 1147.25360193 19.08712995 1147.25283867 14.53236901 1147.2564031 C10.39831882 1147.25960556 6.26429685 1147.25830186 2.13024876 1147.25322244 C0.63486488 1147.2522056 -0.86052128 1147.25290636 -2.35590338 1147.25542838 C-4.36949693 1147.25858647 -6.38309773 1147.25510131 -8.39668995 1147.2511903 C-9.5166513 1147.25112255 -10.63661264 1147.25105479 -11.79051221 1147.25098497 C-14.27658939 1147.12584114 -14.27658939 1147.12584114 -15.27658939 1146.12584114 C-16.95842887 1145.89297106 -18.64783099 1145.71319948 -20.33908939 1145.56334114 C-21.71774174 1145.43765755 -21.71774174 1145.43765755 -23.12424564 1145.30943489 C-24.1896558 1145.21855598 -24.1896558 1145.21855598 -25.27658939 1145.12584114 C-25.27658939 1144.46584114 -25.27658939 1143.80584114 -25.27658939 1143.12584114 C-29.56658939 1142.79584114 -33.85658939 1142.46584114 -38.27658939 1142.12584114 C-38.27658939 1141.46584114 -38.27658939 1140.80584114 -38.27658939 1140.12584114 C-39.92658939 1140.12584114 -41.57658939 1140.12584114 -43.27658939 1140.12584114 C-43.27658939 1139.46584114 -43.27658939 1138.80584114 -43.27658939 1138.12584114 C-45.91658939 1137.79584114 -48.55658939 1137.46584114 -51.27658939 1137.12584114 C-51.27658939 1136.46584114 -51.27658939 1135.80584114 -51.27658939 1135.12584114 C-52.18408939 1135.00209114 -53.09158939 1134.87834114 -54.02658939 1134.75084114 C-56.86629262 1134.20474437 -58.80249531 1133.55320311 -61.27658939 1132.12584114 C-61.27658939 1131.46584114 -61.27658939 1130.80584114 -61.27658939 1130.12584114 C-63.25658939 1129.79584114 -65.23658939 1129.46584114 -67.27658939 1129.12584114 C-67.27658939 1128.46584114 -67.27658939 1127.80584114 -67.27658939 1127.12584114 C-68.92658939 1126.79584114 -70.57658939 1126.46584114 -72.27658939 1126.12584114 C-72.27658939 1125.46584114 -72.27658939 1124.80584114 -72.27658939 1124.12584114 C-73.26658939 1124.12584114 -74.25658939 1124.12584114 -75.27658939 1124.12584114 C-75.27658939 1123.46584114 -75.27658939 1122.80584114 -75.27658939 1122.12584114 C-76.92658939 1121.79584114 -78.57658939 1121.46584114 -80.27658939 1121.12584114 C-80.27658939 1120.46584114 -80.27658939 1119.80584114 -80.27658939 1119.12584114 C-80.93658939 1119.12584114 -81.59658939 1119.12584114 -82.27658939 1119.12584114 C-82.60658939 1118.46584114 -82.93658939 1117.80584114 -83.27658939 1117.12584114 C-83.97783939 1116.71334114 -84.67908939 1116.30084114 -85.40158939 1115.87584114 C-90.12895744 1112.99831277 -94.57370245 1109.25512112 -98.27658939 1105.12584114 C-98.27658939 1104.46584114 -98.27658939 1103.80584114 -98.27658939 1103.12584114 C-98.93658939 1103.12584114 -99.59658939 1103.12584114 -100.27658939 1103.12584114 C-104.27658939 1098.65525291 -104.27658939 1098.65525291 -104.27658939 1096.12584114 C-104.91596439 1095.87834114 -105.55533939 1095.63084114 -106.21408939 1095.37584114 C-108.27658939 1094.12584114 -108.27658939 1094.12584114 -109.02658939 1092.00084114 C-109.10908939 1091.38209114 -109.19158939 1090.76334114 -109.27658939 1090.12584114 C-109.93658939 1090.12584114 -110.59658939 1090.12584114 -111.27658939 1090.12584114 C-114.27658939 1085.74122576 -114.27658939 1085.74122576 -114.27658939 1083.12584114 C-114.93658939 1083.12584114 -115.59658939 1083.12584114 -116.27658939 1083.12584114 C-118.31828424 1080.22035232 -119.27658939 1078.72442068 -119.27658939 1075.12584114 C-119.93658939 1075.12584114 -120.59658939 1075.12584114 -121.27658939 1075.12584114 C-121.60658939 1073.14584114 -121.93658939 1071.16584114 -122.27658939 1069.12584114 C-122.93658939 1069.12584114 -123.59658939 1069.12584114 -124.27658939 1069.12584114 C-127.27658939 1062.50084114 -127.27658939 1062.50084114 -127.27658939 1059.12584114 C-127.93658939 1059.12584114 -128.59658939 1059.12584114 -129.27658939 1059.12584114 C-129.60658939 1056.48584114 -129.93658939 1053.84584114 -130.27658939 1051.12584114 C-130.93658939 1051.12584114 -131.59658939 1051.12584114 -132.27658939 1051.12584114 C-132.27658939 1049.47584114 -132.27658939 1047.82584114 -132.27658939 1046.12584114 C-132.93658939 1046.12584114 -133.59658939 1046.12584114 -134.27658939 1046.12584114 C-134.60658939 1041.83584114 -134.93658939 1037.54584114 -135.27658939 1033.12584114 C-135.93658939 1033.12584114 -136.59658939 1033.12584114 -137.27658939 1033.12584114 C-138.39254463 1025.06895258 -138.41631369 1017.09715943 -138.40243053 1008.97509289 C-138.40347461 1007.43103868 -138.40495656 1005.88698472 -138.4068349 1004.3429313 C-138.41072821 1000.09769096 -138.40839934 995.85247336 -138.40505695 991.60723339 C-138.4025208 986.98953437 -138.40577995 982.37183884 -138.40830028 977.75414032 C-138.41191369 969.66020082 -138.41180134 961.56626799 -138.40925312 953.47232819 C-138.40547412 941.43639062 -138.40740258 929.4004587 -138.41046143 917.36452118 C-138.41573081 895.86935599 -138.41526932 874.37419378 -138.41238252 852.87902831 C-138.40986853 834.06779956 -138.40920953 815.2565719 -138.41040516 796.44534302 C-138.41048154 795.19831447 -138.41055793 793.95128593 -138.41063663 792.66646864 C-138.41094796 787.60456335 -138.41126636 782.54265806 -138.41159639 777.48075277 C-138.41387274 742.1462829 -138.41427277 706.81181332 -138.41053295 671.47734356 C-138.4104627 670.81134478 -138.41039245 670.145346 -138.41032008 669.45916544 C-138.40917512 658.64374947 -138.40795566 647.8283335 -138.4067299 637.01291754 C-138.40187385 594.12013777 -138.4020987 551.22736113 -138.40696049 508.33458138 C-138.40818168 497.52581501 -138.40939273 486.71704865 -138.41053295 475.90828228 C-138.4106034 475.24274569 -138.41067385 474.57720909 -138.41074643 473.89150472 C-138.4145237 437.96079835 -138.41369074 402.03009213 -138.41134822 366.09938568 C-138.4110275 361.0463088 -138.41071466 355.99323191 -138.41040516 350.94015503 C-138.41032608 349.69592918 -138.410247 348.45170333 -138.41016553 347.16977367 C-138.40902742 328.36970893 -138.41035952 309.56964541 -138.41288471 290.76958084 C-138.41574134 269.39513735 -138.41503476 248.02069731 -138.40960397 226.64625425 C-138.40666389 214.67955269 -138.40648148 202.71285858 -138.41025014 190.74615721 C-138.41248895 182.7570448 -138.41110343 174.76793838 -138.40674537 166.77882686 C-138.40436215 162.22416655 -138.40356252 157.66952105 -138.40715136 153.1148612 C-138.41038368 148.97045347 -138.40900624 144.82607368 -138.4039707 140.68166799 C-138.40296451 139.19264387 -138.40362707 137.70361743 -138.40617663 136.21459516 C-138.41851863 128.45515116 -138.27671398 120.82737441 -137.27658939 113.12584114 C-136.61658939 113.12584114 -135.95658939 113.12584114 -135.27658939 113.12584114 C-134.94658939 108.83584114 -134.61658939 104.54584114 -134.27658939 100.12584114 C-133.61658939 100.12584114 -132.95658939 100.12584114 -132.27658939 100.12584114 C-132.27658939 98.47584114 -132.27658939 96.82584114 -132.27658939 95.12584114 C-131.61658939 95.12584114 -130.95658939 95.12584114 -130.27658939 95.12584114 C-129.94658939 92.48584114 -129.61658939 89.84584114 -129.27658939 87.12584114 C-128.61658939 87.12584114 -127.95658939 87.12584114 -127.27658939 87.12584114 C-127.15283939 86.21834114 -127.02908939 85.31084114 -126.90158939 84.37584114 C-126.35549262 81.53613791 -125.70395137 79.59993523 -124.27658939 77.12584114 C-123.61658939 77.12584114 -122.95658939 77.12584114 -122.27658939 77.12584114 C-121.94658939 75.14584114 -121.61658939 73.16584114 -121.27658939 71.12584114 C-120.61658939 71.12584114 -119.95658939 71.12584114 -119.27658939 71.12584114 C-119.15283939 70.54834114 -119.02908939 69.97084114 -118.90158939 69.37584114 C-118.27010115 67.10248347 -117.38800749 65.20048825 -116.27658939 63.12584114 C-115.61658939 63.12584114 -114.95658939 63.12584114 -114.27658939 63.12584114 C-114.00846439 62.36271614 -113.74033939 61.59959114 -113.46408939 60.81334114 C-112.29133448 58.1592116 -111.31977577 57.08730007 -109.27658939 55.12584114 C-108.76096439 54.23896614 -108.24533939 53.35209114 -107.71408939 52.43834114 C-107.23971439 51.67521614 -106.76533939 50.91209114 -106.27658939 50.12584114 C-105.61658939 50.12584114 -104.95658939 50.12584114 -104.27658939 50.12584114 C-104.18377689 49.25959114 -104.18377689 49.25959114 -104.08908939 48.37584114 C-102.94274765 45.20135631 -101.01702097 43.99735539 -98.27658939 42.12584114 C-97.61658939 42.12584114 -96.95658939 42.12584114 -96.27658939 42.12584114 C-96.18377689 41.25959114 -96.18377689 41.25959114 -96.08908939 40.37584114 C-94.94274765 37.20135631 -93.01702097 35.99735539 -90.27658939 34.12584114 C-89.61658939 34.12584114 -88.95658939 34.12584114 -88.27658939 34.12584114 C-88.00846439 33.48646614 -87.74033939 32.84709114 -87.46408939 32.18834114 C-86.27658939 30.12584114 -86.27658939 30.12584114 -83.27658939 29.12584114 C-82.31752689 28.13584114 -82.31752689 28.13584114 -81.33908939 27.12584114 C-79.21984224 25.0708136 -78.13911025 24.53477269 -75.27658939 24.12584114 C-75.27658939 23.46584114 -75.27658939 22.80584114 -75.27658939 22.12584114 C-72.37110057 20.08414629 -70.87516894 19.12584114 -67.27658939 19.12584114 C-67.27658939 18.46584114 -67.27658939 17.80584114 -67.27658939 17.12584114 C-65.29658939 16.79584114 -63.31658939 16.46584114 -61.27658939 16.12584114 C-61.27658939 15.46584114 -61.27658939 14.80584114 -61.27658939 14.12584114 C-54.65158939 11.12584114 -54.65158939 11.12584114 -51.27658939 11.12584114 C-51.27658939 10.46584114 -51.27658939 9.80584114 -51.27658939 9.12584114 C-48.63658939 8.79584114 -45.99658939 8.46584114 -43.27658939 8.12584114 C-43.27658939 7.46584114 -43.27658939 6.80584114 -43.27658939 6.12584114 C-41.62658939 6.12584114 -39.97658939 6.12584114 -38.27658939 6.12584114 C-38.27658939 5.46584114 -38.27658939 4.80584114 -38.27658939 4.12584114 C-33.98658939 3.79584114 -29.69658939 3.46584114 -25.27658939 3.12584114 C-25.27658939 2.46584114 -25.27658939 1.80584114 -25.27658939 1.12584114 C-16.85210248 0.03183347 -8.48298067 -0.0145249 0 0 Z " fill="#101920" transform="translate(205.27658939361572,66.87415885925293)"/>
<path d="M0 0 C36.7228125 -0.12375 36.7228125 -0.12375 74.1875 -0.25 C81.87957764 -0.28641602 89.57165527 -0.32283203 97.49682617 -0.36035156 C106.98693848 -0.37841797 106.98693848 -0.37841797 111.44844055 -0.3817749 C114.52347173 -0.38545847 117.59821858 -0.4002724 120.673172 -0.42230225 C155.9800916 -0.66376497 188.73003062 3.41164637 216 28 C216.84175781 28.74765625 217.68351563 29.4953125 218.55078125 30.265625 C240.54329256 50.92422038 252.00575436 83.55115489 253.08074951 113.22930908 C253.25164212 119.40239701 253.2977306 125.57480482 253.3125 131.75 C253.31814972 133.05896744 253.31814972 133.05896744 253.32391357 134.39437866 C253.38743392 163.47338019 253.38743392 163.47338019 248 177 C247.5271459 178.86639767 247.08647044 180.74142525 246.6875 182.625 C244.24330284 192.73450657 240.06494346 202.52525234 234 211 C233.34128906 211.92296875 232.68257812 212.8459375 232.00390625 213.796875 C220.8170325 229.07461593 209.01581346 240.50488712 192 249 C191.21496094 249.42796875 190.42992187 249.8559375 189.62109375 250.296875 C169.97928184 260.78113704 147.20067995 264.17581318 125.21850586 264.11352539 C123.8256992 264.11321852 122.43289238 264.11335346 121.04008579 264.11389065 C117.33403511 264.114115 113.62801718 264.10834896 109.92197418 264.10128021 C106.4353272 264.09555537 102.94868789 264.09531547 99.46203613 264.09460449 C89.28718647 264.0893719 79.11234281 264.07541064 68.9375 264.0625 C34.8134375 264.0315625 34.8134375 264.0315625 0 264 C0 176.88 0 89.76 0 0 Z " fill="#71A9DC" transform="translate(650,857)"/>
<path d="M0 0 C16.29044289 14.11675561 25.10050115 31.22264467 28.0625 52.5625 C28.0625 56.1925 28.0625 59.8225 28.0625 63.5625 C2.6525 63.5625 -22.7575 63.5625 -48.9375 63.5625 C-49.5975 59.2725 -50.2575 54.9825 -50.9375 50.5625 C-55.65085517 43.02113173 -62.87334242 39.44397615 -71.375 37.25 C-82.04455459 35.28799784 -95.05329544 35.89027361 -104.9375 40.5625 C-109.21368318 44.35275328 -110.69761837 46.54064058 -111.375 52.25 C-111.27741474 56.68199737 -109.7680023 59.3323395 -106.94140625 62.68359375 C-96.26338932 72.69553555 -79.44216936 75.25458546 -65.6875 78.75 C-64.70628174 79.00007812 -63.72506348 79.25015625 -62.71411133 79.5078125 C-55.83559937 81.21175387 -48.94135943 82.4902756 -41.9375 83.5625 C-41.9375 84.2225 -41.9375 84.8825 -41.9375 85.5625 C-41.04804688 85.645 -40.15859375 85.7275 -39.2421875 85.8125 C-18.00063835 88.88202642 4.27828557 99.04425499 20.0625 113.5625 C20.71476563 114.12324219 21.36703125 114.68398438 22.0390625 115.26171875 C30.40610529 122.87314754 34.60685843 132.74183425 37.0625 143.5625 C37.58457031 145.13257813 37.58457031 145.13257813 38.1171875 146.734375 C39.30878988 151.55987225 39.40465976 156.04853937 39.375 161 C39.36762817 162.45490845 39.36762817 162.45490845 39.36010742 163.93920898 C39.00524491 185.99709865 31.79182697 206.75763758 16.12890625 222.6796875 C6.22964657 232.243108 -5.41156566 238.15556458 -17.9375 243.5625 C-19.1234375 244.09101562 -20.309375 244.61953125 -21.53125 245.1640625 C-52.73315053 257.97401707 -95.84454773 258.95996158 -127.9375 248.5625 C-128.62199219 248.34110352 -129.30648437 248.11970703 -130.01171875 247.89160156 C-155.44948992 239.50231964 -177.49705206 226.0037518 -190.02197266 201.44189453 C-197.16938865 186.76967897 -198.9375 175.39715827 -198.9375 158.5625 C-172.2075 158.5625 -145.4775 158.5625 -117.9375 158.5625 C-117.2775 162.5225 -116.6175 166.4825 -115.9375 170.5625 C-115.06042447 173.91705771 -115.06042447 173.91705771 -114 176.625 C-113.68160156 177.50285156 -113.36320312 178.38070313 -113.03515625 179.28515625 C-111.93042585 181.57717698 -110.74979587 182.82248944 -108.9375 184.5625 C-108.9375 185.2225 -108.9375 185.8825 -108.9375 186.5625 C-105.70252554 188.22642227 -102.40880605 189.69877541 -99.0625 191.125 C-98.05445313 191.55941406 -97.04640625 191.99382812 -96.0078125 192.44140625 C-84.65273724 196.58759785 -68.56544282 196.34547674 -57.421875 191.8125 C-50.19134446 188.17449721 -46.20493875 184.86447399 -43.55859375 177.01953125 C-42.40141371 172.44175613 -42.52262361 169.01456737 -43.8125 164.5 C-49.56585873 156.54682764 -60.22882774 153.74288232 -69.1875 150.875 C-70.48253216 150.45102032 -71.77745085 150.0266939 -73.07226562 149.60205078 C-83.78544054 146.1217219 -94.60574391 143.0239155 -105.4375 139.9375 C-152.91029232 126.40585739 -152.91029232 126.40585739 -169.9375 111.5625 C-169.9375 110.9025 -169.9375 110.2425 -169.9375 109.5625 C-170.9275 109.2325 -171.9175 108.9025 -172.9375 108.5625 C-184.25891501 95.725247 -189.54341103 80.32004378 -189.375 63.375 C-189.36597656 62.28002197 -189.35695312 61.18504395 -189.34765625 60.05688477 C-188.91383311 39.60543749 -180.99841778 19.88129924 -166.5625 5.13671875 C-164.09207309 2.83999374 -161.56050989 0.68263223 -158.9375 -1.4375 C-158.17953125 -2.06527344 -157.4215625 -2.69304688 -156.640625 -3.33984375 C-150.48068621 -8.06315252 -143.93281577 -10.57370207 -136.671875 -13.078125 C-133.00520256 -14.31864817 -133.00520256 -14.31864817 -130.00390625 -15.9765625 C-126.13421725 -17.82021051 -122.30020223 -18.67264445 -118.125 -19.5625 C-113.13324498 -20.25009824 -113.13324498 -20.25009824 -108.9375 -22.4375 C-72.87921346 -28.7413766 -29.20234354 -22.95628673 0 0 Z " fill="#71A8DC" transform="translate(336.9375,873.4375)"/>
<path d="M0 0 C29.7 0 59.4 0 90 0 C91.98 4.29 93.96 8.58 96 13 C97.56316668 16.12761256 97.56316668 16.12761256 99.13671875 19.25 C100.94328666 22.91218292 102.48586857 26.68150165 103.96875 30.484375 C105.95212868 35.6274414 105.95212868 35.6274414 108.5 40.5 C109.89835929 42.83059881 110.83311654 45.00004071 111.8125 47.52734375 C113.88743096 52.78010544 116.16002666 57.92334354 118.5 63.0625 C119.26061885 64.7407938 120.0210368 66.41917866 120.78125 68.09765625 C121.14935791 68.90807373 121.51746582 69.71849121 121.89672852 70.5534668 C123.33164852 73.73543921 124.73415073 76.93135495 126.13061523 80.13037109 C127.03201012 82.1601728 127.03201012 82.1601728 128.5625 84.5625 C130.2259539 87.38313923 131.22289848 90.2292768 132.25390625 93.328125 C132.87895586 95.2038679 132.87895586 95.2038679 135 96 C135.39239868 94.73760498 135.39239868 94.73760498 135.79272461 93.44970703 C137.0774122 89.77879993 138.63928573 86.30656897 140.31640625 82.8046875 C140.64483521 82.11169052 140.97326416 81.41869354 141.31164551 80.70469666 C142.39212052 78.42662372 143.47733099 76.15084015 144.5625 73.875 C145.32189569 72.27580685 146.08092294 70.67643869 146.83959961 69.0769043 C148.42289021 65.73955473 150.00778028 62.40297171 151.59375 59.06689453 C155.07062103 51.74989467 158.52725059 44.42334366 161.98434448 37.09698486 C163.02694223 34.88784274 164.07011762 32.67897448 165.11352539 30.47021484 C165.60845741 29.42229767 165.60845741 29.42229767 166.11338806 28.35321045 C166.76246662 26.97912206 167.41176386 25.60513693 168.06129456 24.23126221 C169.79541455 20.56098723 171.52123449 16.8870207 173.23779297 13.20849609 C173.6050499 12.42310959 173.97230682 11.63772308 174.35069275 10.82853699 C175.05950742 9.31205971 175.76657764 7.79476553 176.47169495 6.27656555 C178.88805422 1.11194578 178.88805422 1.11194578 180 0 C182.76938966 -0.09517803 185.51377159 -0.12554265 188.28344727 -0.11352539 C189.58576797 -0.11374443 189.58576797 -0.11374443 190.91439819 -0.1139679 C193.79842586 -0.11326846 196.6823898 -0.10547463 199.56640625 -0.09765625 C201.56037867 -0.09579218 203.55435155 -0.09436823 205.54832458 -0.09336853 C210.80745702 -0.08954248 216.06656203 -0.07971145 221.32568359 -0.06866455 C226.68782175 -0.0584523 232.04996431 -0.05387131 237.41210938 -0.04882812 C247.94141833 -0.03808926 258.47070689 -0.0210118 269 0 C269 0.99 269 1.98 269 3 C268.34 3 267.68 3 267 3 C266.73010254 3.71341553 266.46020508 4.42683105 266.18212891 5.16186523 C264.9834301 8.03978214 263.6024438 10.68702607 262.0859375 13.41015625 C261.2040979 14.99691162 261.2040979 14.99691162 260.30444336 16.61572266 C259.66772705 17.75315918 259.03101074 18.8905957 258.375 20.0625 C257.70377442 21.26606699 257.03263343 22.46968117 256.36157227 23.67333984 C250.94735488 33.36912925 245.4437323 43.01322305 239.91796875 52.64575195 C235.51839612 60.31868826 231.17891736 68.02303451 226.875 75.75 C222.3624632 83.84733376 217.75849479 91.88272748 213.0625 99.875 C207.38774054 109.53564036 201.90800365 119.29387946 196.48925781 129.10009766 C191.18843723 138.68748732 185.78193124 148.21104253 180.31762695 157.70605469 C179.88281006 158.46305664 179.44799316 159.22005859 179 160 C178.3240831 161.00037796 177.6481662 162.00075592 176.95176697 163.03144836 C174.39294764 167.54172588 174.42537395 171.70123935 174.45410156 176.79077148 C174.43859505 178.22607964 174.43859505 178.22607964 174.42277527 179.69038391 C174.39341997 182.83412712 174.39184961 185.97722445 174.390625 189.12109375 C174.37563849 191.30828575 174.35891035 193.49546646 174.34051514 195.68263245 C174.29688265 201.42500335 174.27685146 207.16722158 174.26177979 212.909729 C174.23874744 219.80737938 174.18632243 226.70486177 174.13883972 233.60237885 C174.07007504 244.06829637 174.03858532 254.53373173 174 265 C147.27 265 120.54 265 93 265 C92.99742187 257.96945312 92.99484375 250.93890625 92.9921875 243.6953125 C92.97723196 239.22910129 92.96051851 234.76303418 92.9375 230.296875 C92.9011671 223.21507553 92.87118283 216.13366382 92.87988281 209.05175781 C92.88649228 203.33912183 92.86389798 197.62726573 92.82144547 191.91479111 C92.81034318 189.74045464 92.80958796 187.5660388 92.81957626 185.39169693 C93.18546958 169.59865978 93.18546958 169.59865978 86 156 C84.87398352 154.02935788 83.75850204 152.05260361 82.66015625 150.06640625 C82.07999756 149.01952637 81.49983887 147.97264648 80.90209961 146.89404297 C80.29503174 145.79463379 79.68796387 144.69522461 79.0625 143.5625 C78.40717291 142.37896351 77.75165097 141.1955349 77.09594727 140.01220703 C75.73799161 137.56113932 74.38086054 135.10961806 73.02441406 132.65771484 C69.83490232 126.89341045 66.63643152 121.13408072 63.4375 115.375 C62.81689697 114.25746338 62.19629395 113.13992676 61.55688477 111.98852539 C57.38676706 104.48361787 53.19876112 96.9889146 49 89.5 C44.16976998 80.88479684 39.3576084 72.2598028 34.5625 63.625 C33.94205811 62.50786621 33.32161621 61.39073242 32.68237305 60.23974609 C29.49857223 54.50535928 26.31801736 48.76919009 23.140625 43.03125 C21.86477809 40.72905873 20.58873847 38.42697423 19.3125 36.125 C18.69697266 35.01406982 18.08144531 33.90313965 17.44726562 32.75854492 C12.88569758 24.54493509 8.24211968 16.38073808 3.50317383 8.26806641 C2.80744263 7.06609619 2.80744263 7.06609619 2.09765625 5.83984375 C1.48676147 4.79364868 1.48676147 4.79364868 0.86352539 3.72631836 C0 2 0 2 0 0 Z " fill="#71A8DC" transform="translate(370,856)"/>
<path d="M0 0 C44.42857143 0 44.42857143 0 61 6 C61 6.66 61 7.32 61 8 C61.72445312 8.25910156 62.44890625 8.51820313 63.1953125 8.78515625 C75.80627395 14.24756434 81.93626586 25.78499556 86.95703125 37.8828125 C89.58784919 45.74570657 90.32937818 53.03595658 90.25 61.3125 C90.24323242 62.33142334 90.23646484 63.35034668 90.22949219 64.40014648 C90.13270312 71.43704907 89.72625016 78.15286251 88 85 C87.69707031 86.20398438 87.39414062 87.40796875 87.08203125 88.6484375 C84.12645687 99.63275606 84.12645687 99.63275606 81 104 C80.34 104 79.68 104 79 104 C78.62875 105.10021484 78.62875 105.10021484 78.25 106.22265625 C74.48448417 114.58916174 65.84821892 119.93405526 58 124 C46 128 46 128 0 128 C0 85.76 0 43.52 0 0 Z " fill="#101921" transform="translate(732,925)"/>
<path d="M0 0 C0.66 0.33 1.32 0.66 2 1 C-3.28 6.28 -8.56 11.56 -14 17 C-14 12.08113186 -10.31173311 9.3948461 -7 6 C-4.72300284 3.91201998 -2.39497582 1.9550823 0 0 Z " fill="#6191BE" transform="translate(178,872)"/>
</svg>
