<?xml version="1.0" encoding="UTF-8"?>
<svg version="1.1" xmlns="http://www.w3.org/2000/svg" width="1280" height="1280">
<path d="M0 0 C1.54552233 -0.00104436 3.09104441 -0.00252652 4.63656595 -0.00440437 C8.88121366 -0.00829357 13.12583858 -0.00597097 17.37048591 -0.00262641 C21.98926604 -0.00008828 26.60804269 -0.0033502 31.22682232 -0.00586975 C39.32107943 -0.00948168 47.41532987 -0.0093717 55.50958729 -0.00682259 C67.54592762 -0.00304228 79.58226231 -0.00497272 91.6186026 -0.00803089 C113.11440815 -0.01329914 134.61021073 -0.01283925 156.10601656 -0.00995198 C174.91658619 -0.00743774 193.72715473 -0.00677911 212.53772449 -0.00797462 C213.78482942 -0.00805101 215.03193435 -0.00812739 216.31683034 -0.00820609 C221.37905555 -0.00851743 226.44128076 -0.00883583 231.50350597 -0.00916586 C266.83762137 -0.01144204 302.17173646 -0.01184259 337.50585175 -0.00810242 C338.17178028 -0.00803217 338.83770881 -0.00796192 339.52381699 -0.00788954 C350.33803624 -0.0067446 361.15225548 -0.00552513 371.96647472 -0.00429937 C414.85933134 0.00055725 457.75218485 0.00033129 500.64504147 -0.00452995 C511.45499865 -0.00575114 522.26495583 -0.00696219 533.07491302 -0.00810242 C533.74052007 -0.00817287 534.40612711 -0.00824331 535.09190406 -0.0083159 C571.02281103 -0.01209279 606.95371785 -0.01126037 642.8846249 -0.00891769 C647.93738743 -0.00859696 652.99014995 -0.00828412 658.04291248 -0.00797462 C659.28705926 -0.00789555 660.53120603 -0.00781647 661.81305422 -0.007735 C680.61402535 -0.00659676 699.41499526 -0.00792921 718.21596622 -0.01045418 C739.58931613 -0.01331028 760.9626626 -0.01260533 782.33601207 -0.00717343 C794.30292902 -0.00423258 806.26983853 -0.00405206 818.23675529 -0.00781961 C826.22469944 -0.01005746 834.21263761 -0.00867464 842.20058087 -0.00431484 C846.75537651 -0.0019303 851.31015733 -0.00113471 855.86495251 -0.00472082 C860.00830003 -0.00794981 864.15161958 -0.00658054 868.29496506 -0.00154016 C869.78472449 -0.0005328 871.27448624 -0.00119964 872.76424383 -0.0037461 C880.16691799 -0.01550193 887.38555021 0.1094781 894.72341061 1.12584114 C894.72341061 1.78584114 894.72341061 2.44584114 894.72341061 3.12584114 C901.15841061 3.62084114 901.15841061 3.62084114 907.72341061 4.12584114 C907.72341061 4.78584114 907.72341061 5.44584114 907.72341061 6.12584114 C909.37341061 6.12584114 911.02341061 6.12584114 912.72341061 6.12584114 C912.72341061 6.78584114 912.72341061 7.44584114 912.72341061 8.12584114 C915.36341061 8.45584114 918.00341061 8.78584114 920.72341061 9.12584114 C920.72341061 9.78584114 920.72341061 10.44584114 920.72341061 11.12584114 C921.63091061 11.24959114 922.53841061 11.37334114 923.47341061 11.50084114 C926.31311383 12.04693791 928.24931652 12.69847917 930.72341061 14.12584114 C930.72341061 14.78584114 930.72341061 15.44584114 930.72341061 16.12584114 C932.70341061 16.45584114 934.68341061 16.78584114 936.72341061 17.12584114 C936.72341061 17.78584114 936.72341061 18.44584114 936.72341061 19.12584114 C937.30091061 19.24959114 937.87841061 19.37334114 938.47341061 19.50084114 C940.74676827 20.13232938 942.6487635 21.01442305 944.72341061 22.12584114 C944.72341061 22.78584114 944.72341061 23.44584114 944.72341061 24.12584114 C945.50716061 24.43521614 946.29091061 24.74459114 947.09841061 25.06334114 C949.72341061 26.12584114 949.72341061 26.12584114 951.72341061 27.12584114 C951.72341061 27.78584114 951.72341061 28.44584114 951.72341061 29.12584114 C952.52778561 29.39396614 953.33216061 29.66209114 954.16091061 29.93834114 C955.00653561 30.33021614 955.85216061 30.72209114 956.72341061 31.12584114 C957.05341061 32.11584114 957.38341061 33.10584114 957.72341061 34.12584114 C959.05137351 34.47996458 960.38557667 34.81105669 961.72341061 35.12584114 C963.47341061 36.56334114 963.47341061 36.56334114 964.72341061 38.12584114 C964.72341061 38.78584114 964.72341061 39.44584114 964.72341061 40.12584114 C965.38341061 40.12584114 966.04341061 40.12584114 966.72341061 40.12584114 C968.08517982 41.76935571 969.41303127 43.4410677 970.72341061 45.12584114 C971.56903561 45.95084114 972.41466061 46.77584114 973.28591061 47.62584114 C975.60265415 50.00198837 977.06296823 52.27936849 978.72341061 55.12584114 C979.38341061 55.45584114 980.04341061 55.78584114 980.72341061 56.12584114 C980.72341061 56.78584114 980.72341061 57.44584114 980.72341061 58.12584114 C981.38341061 58.12584114 982.04341061 58.12584114 982.72341061 58.12584114 C983.05341061 59.77584114 983.38341061 61.42584114 983.72341061 63.12584114 C984.38341061 63.12584114 985.04341061 63.12584114 985.72341061 63.12584114 C985.72341061 64.11584114 985.72341061 65.10584114 985.72341061 66.12584114 C986.38341061 66.12584114 987.04341061 66.12584114 987.72341061 66.12584114 C988.05341061 67.77584114 988.38341061 69.42584114 988.72341061 71.12584114 C989.38341061 71.12584114 990.04341061 71.12584114 990.72341061 71.12584114 C991.05341061 73.10584114 991.38341061 75.08584114 991.72341061 77.12584114 C992.38341061 77.12584114 993.04341061 77.12584114 993.72341061 77.12584114 C996.72341061 83.75084114 996.72341061 83.75084114 996.72341061 87.12584114 C997.38341061 87.12584114 998.04341061 87.12584114 998.72341061 87.12584114 C999.05341061 89.76584114 999.38341061 92.40584114 999.72341061 95.12584114 C1000.38341061 95.12584114 1001.04341061 95.12584114 1001.72341061 95.12584114 C1001.72341061 96.77584114 1001.72341061 98.42584114 1001.72341061 100.12584114 C1002.38341061 100.12584114 1003.04341061 100.12584114 1003.72341061 100.12584114 C1004.05341061 104.41584114 1004.38341061 108.70584114 1004.72341061 113.12584114 C1005.38341061 113.12584114 1006.04341061 113.12584114 1006.72341061 113.12584114 C1006.81428951 114.1912513 1006.81428951 114.1912513 1006.90700436 115.27818489 C1006.99079342 116.19728645 1007.07458248 117.11638802 1007.16091061 118.06334114 C1007.24212154 118.97986458 1007.32333248 119.89638802 1007.40700436 120.84068489 C1007.48386037 123.08743846 1007.48386037 123.08743846 1008.72341061 124.12584114 C1008.82196877 126.08377391 1008.84864116 128.04532879 1008.84875977 130.00574058 C1008.85251505 131.93915582 1008.85251505 131.93915582 1008.85634619 133.91162995 C1008.85406886 135.36365382 1008.85170064 136.81567755 1008.84925175 138.26770115 C1008.85029351 139.79973606 1008.85177374 141.33177073 1008.85365611 142.86380485 C1008.85758252 147.11291503 1008.8552034 151.36200277 1008.85187816 155.61111262 C1008.8493579 160.21898157 1008.8525948 164.82684688 1008.85512149 169.43471533 C1008.8587466 177.52356236 1008.85861542 185.61240273 1008.85607433 193.70125008 C1008.85230594 205.72931543 1008.85421823 217.75737512 1008.85728264 229.78544043 C1008.86256033 251.26258623 1008.86208724 272.73972907 1008.85920373 294.21687516 C1008.85669256 313.01201159 1008.85602942 331.80714692 1008.85722637 350.60228348 C1008.85730276 351.8468639 1008.85737914 353.09144432 1008.85745784 354.37373929 C1008.85776916 359.42534418 1008.85808756 364.47694907 1008.85841761 369.52855396 C1008.860695 404.80514635 1008.8610916 440.08173844 1008.85735416 475.35833073 C1008.85728392 476.02366697 1008.85721367 476.68900321 1008.85714129 477.37450116 C1008.85599625 488.18006235 1008.85477683 498.98562354 1008.85355111 509.79118472 C1008.84869483 552.64842475 1008.84891969 595.50566167 1008.8537817 638.36290169 C1008.85500283 649.16173712 1008.85621386 659.96057255 1008.85735416 670.759408 C1008.85745984 671.75671234 1008.85745984 671.75671234 1008.85756764 672.77416425 C1008.86134245 708.6450231 1008.86051293 744.51588181 1008.85816944 780.38674074 C1008.8578487 785.42968818 1008.85753586 790.47263561 1008.85722637 795.51558304 C1008.85714729 796.75737082 1008.85706822 797.99915861 1008.85698674 799.27857633 C1008.85584726 818.0653872 1008.85718328 836.85219686 1008.85970592 855.63900757 C1008.86255882 876.99228104 1008.86186401 898.34555106 1008.85642518 919.6988241 C1008.85347876 931.66272328 1008.85331175 943.62661501 1008.85707136 955.59051401 C1008.8593026 963.56783095 1008.85793849 971.54514189 1008.85356659 979.52245795 C1008.85117272 984.07708399 1008.85040545 988.63169517 1008.85397257 993.18632077 C1008.85717833 997.32143117 1008.85586639 1001.45651338 1008.85079191 1005.59162169 C1008.84977625 1007.08627026 1008.85047281 1008.58092111 1008.85299785 1010.07556789 C1008.85616312 1012.09057411 1008.85266593 1014.10558761 1008.84875977 1016.12059253 C1008.84865813 1017.80063619 1008.84865813 1017.80063619 1008.84855444 1019.51462012 C1008.72341061 1022.12584114 1008.72341061 1022.12584114 1007.72341061 1024.12584114 C1007.4987323 1025.6625298 1007.31544255 1027.20552168 1007.16091061 1028.75084114 C1007.07712154 1029.56810677 1006.99333248 1030.38537239 1006.90700436 1031.22740364 C1006.81612545 1032.1671302 1006.81612545 1032.1671302 1006.72341061 1033.12584114 C1006.06341061 1033.12584114 1005.40341061 1033.12584114 1004.72341061 1033.12584114 C1004.39341061 1037.41584114 1004.06341061 1041.70584114 1003.72341061 1046.12584114 C1003.06341061 1046.12584114 1002.40341061 1046.12584114 1001.72341061 1046.12584114 C1001.72341061 1047.77584114 1001.72341061 1049.42584114 1001.72341061 1051.12584114 C1001.06341061 1051.12584114 1000.40341061 1051.12584114 999.72341061 1051.12584114 C999.39341061 1053.76584114 999.06341061 1056.40584114 998.72341061 1059.12584114 C998.06341061 1059.12584114 997.40341061 1059.12584114 996.72341061 1059.12584114 C996.39341061 1061.43584114 996.06341061 1063.74584114 995.72341061 1066.12584114 C995.06341061 1066.12584114 994.40341061 1066.12584114 993.72341061 1066.12584114 C993.72341061 1067.11584114 993.72341061 1068.10584114 993.72341061 1069.12584114 C993.06341061 1069.12584114 992.40341061 1069.12584114 991.72341061 1069.12584114 C991.39341061 1071.10584114 991.06341061 1073.08584114 990.72341061 1075.12584114 C990.06341061 1075.12584114 989.40341061 1075.12584114 988.72341061 1075.12584114 C988.39341061 1076.77584114 988.06341061 1078.42584114 987.72341061 1080.12584114 C987.06341061 1080.12584114 986.40341061 1080.12584114 985.72341061 1080.12584114 C985.72341061 1081.11584114 985.72341061 1082.10584114 985.72341061 1083.12584114 C985.06341061 1083.12584114 984.40341061 1083.12584114 983.72341061 1083.12584114 C983.39341061 1084.77584114 983.06341061 1086.42584114 982.72341061 1088.12584114 C982.06341061 1088.12584114 981.40341061 1088.12584114 980.72341061 1088.12584114 C980.72341061 1088.78584114 980.72341061 1089.44584114 980.72341061 1090.12584114 C980.06341061 1090.12584114 979.40341061 1090.12584114 978.72341061 1090.12584114 C978.43466061 1090.88896614 978.14591061 1091.65209114 977.84841061 1092.43834114 C976.72341061 1095.12584114 976.72341061 1095.12584114 974.72341061 1098.12584114 C974.06341061 1098.12584114 973.40341061 1098.12584114 972.72341061 1098.12584114 C972.72341061 1098.78584114 972.72341061 1099.44584114 972.72341061 1100.12584114 C971.34841061 1101.75084114 971.34841061 1101.75084114 969.72341061 1103.12584114 C969.06341061 1103.12584114 968.40341061 1103.12584114 967.72341061 1103.12584114 C967.39341061 1104.11584114 967.06341061 1105.10584114 966.72341061 1106.12584114 C966.06341061 1106.12584114 965.40341061 1106.12584114 964.72341061 1106.12584114 C964.72341061 1106.78584114 964.72341061 1107.44584114 964.72341061 1108.12584114 C963.34841061 1109.75084114 963.34841061 1109.75084114 961.72341061 1111.12584114 C961.06341061 1111.12584114 960.40341061 1111.12584114 959.72341061 1111.12584114 C959.72341061 1111.78584114 959.72341061 1112.44584114 959.72341061 1113.12584114 C954.3116459 1117.12584114 954.3116459 1117.12584114 951.72341061 1117.12584114 C951.72341061 1117.78584114 951.72341061 1118.44584114 951.72341061 1119.12584114 C951.06341061 1119.12584114 950.40341061 1119.12584114 949.72341061 1119.12584114 C949.72341061 1119.78584114 949.72341061 1120.44584114 949.72341061 1121.12584114 C948.07341061 1121.45584114 946.42341061 1121.78584114 944.72341061 1122.12584114 C944.72341061 1122.78584114 944.72341061 1123.44584114 944.72341061 1124.12584114 C943.73341061 1124.12584114 942.74341061 1124.12584114 941.72341061 1124.12584114 C941.72341061 1124.78584114 941.72341061 1125.44584114 941.72341061 1126.12584114 C940.07341061 1126.45584114 938.42341061 1126.78584114 936.72341061 1127.12584114 C936.72341061 1127.78584114 936.72341061 1128.44584114 936.72341061 1129.12584114 C934.74341061 1129.45584114 932.76341061 1129.78584114 930.72341061 1130.12584114 C930.72341061 1130.78584114 930.72341061 1131.44584114 930.72341061 1132.12584114 C929.73341061 1132.12584114 928.74341061 1132.12584114 927.72341061 1132.12584114 C927.72341061 1132.78584114 927.72341061 1133.44584114 927.72341061 1134.12584114 C925.41341061 1134.45584114 923.10341061 1134.78584114 920.72341061 1135.12584114 C920.72341061 1135.78584114 920.72341061 1136.44584114 920.72341061 1137.12584114 C918.08341061 1137.45584114 915.44341061 1137.78584114 912.72341061 1138.12584114 C912.72341061 1138.78584114 912.72341061 1139.44584114 912.72341061 1140.12584114 C911.07341061 1140.12584114 909.42341061 1140.12584114 907.72341061 1140.12584114 C907.72341061 1140.78584114 907.72341061 1141.44584114 907.72341061 1142.12584114 C903.43341061 1142.45584114 899.14341061 1142.78584114 894.72341061 1143.12584114 C894.72341061 1143.78584114 894.72341061 1144.44584114 894.72341061 1145.12584114 C894.09692623 1145.18642708 893.47044186 1145.24701302 892.82497311 1145.30943489 C892.00770748 1145.39322395 891.19044186 1145.47701302 890.34841061 1145.56334114 C889.53630123 1145.64455208 888.72419186 1145.72576302 887.88747311 1145.80943489 C885.68068256 1146.01674228 885.68068256 1146.01674228 883.72341061 1147.12584114 C881.72352045 1147.22168669 879.72034756 1147.25106918 877.718162 1147.2511903 C875.78099149 1147.25494558 875.78099149 1147.25494558 873.80468622 1147.25877672 C872.35502716 1147.25649953 870.90536824 1147.25413132 869.45570946 1147.25168228 C867.92220642 1147.25272434 866.38870363 1147.25420478 864.85520139 1147.25608665 C860.60668385 1147.26000888 856.35818879 1147.25763607 852.10967157 1147.25430869 C847.50072152 1147.25178646 842.89177508 1147.25502613 838.28282553 1147.25755203 C830.19366088 1147.26117565 822.1045029 1147.26104685 814.01533794 1147.25850487 C801.98686982 1147.25473517 789.95840736 1147.25664944 777.92993928 1147.25971317 C756.45215312 1147.26498972 734.97436991 1147.26451825 713.49658346 1147.26163426 C694.70210616 1147.25912285 675.90762994 1147.25846007 657.1131525 1147.25965691 C655.2461673 1147.25977148 655.2461673 1147.25977148 653.34146522 1147.25988838 C648.28954041 1147.26019969 643.2376156 1147.26051809 638.18569079 1147.26084814 C602.90945287 1147.26312536 567.63321527 1147.26352249 532.35697746 1147.2597847 C531.69171147 1147.25971445 531.02644547 1147.2596442 530.3410199 1147.25957182 C519.53665544 1147.25842679 508.73229098 1147.25720737 497.92792652 1147.25598165 C455.07060962 1147.2511248 412.21329585 1147.25135077 369.35597897 1147.25621223 C358.55595271 1147.25743336 347.75592646 1147.25864439 336.95590019 1147.2597847 C335.95849017 1147.25989037 335.95849017 1147.25989037 334.94093046 1147.25999818 C299.06987101 1147.26377261 263.19881171 1147.26294363 227.32775217 1147.26059997 C222.2851191 1147.26027923 217.24248602 1147.25996639 212.19985294 1147.25965691 C210.33728988 1147.25953829 210.33728988 1147.25953829 208.43709928 1147.25941728 C189.64938202 1147.25827767 170.86166596 1147.25961403 152.07394886 1147.26213646 C130.72176897 1147.26498882 109.36959253 1147.26429565 88.01741307 1147.25885572 C76.0532985 1147.25590852 64.08919138 1147.2557434 52.12507699 1147.25950189 C44.1489283 1147.26173219 36.17278562 1147.26037078 28.19663782 1147.25599712 C23.64187645 1147.25360193 19.08712995 1147.25283867 14.53236901 1147.2564031 C10.39831882 1147.25960556 6.26429685 1147.25830186 2.13024876 1147.25322244 C0.63486488 1147.2522056 -0.86052128 1147.25290636 -2.35590338 1147.25542838 C-4.36949693 1147.25858647 -6.38309773 1147.25510131 -8.39668995 1147.2511903 C-9.5166513 1147.25112255 -10.63661264 1147.25105479 -11.79051221 1147.25098497 C-14.27658939 1147.12584114 -14.27658939 1147.12584114 -15.27658939 1146.12584114 C-16.95842887 1145.89297106 -18.64783099 1145.71319948 -20.33908939 1145.56334114 C-21.71774174 1145.43765755 -21.71774174 1145.43765755 -23.12424564 1145.30943489 C-24.1896558 1145.21855598 -24.1896558 1145.21855598 -25.27658939 1145.12584114 C-25.27658939 1144.46584114 -25.27658939 1143.80584114 -25.27658939 1143.12584114 C-29.56658939 1142.79584114 -33.85658939 1142.46584114 -38.27658939 1142.12584114 C-38.27658939 1141.46584114 -38.27658939 1140.80584114 -38.27658939 1140.12584114 C-39.92658939 1140.12584114 -41.57658939 1140.12584114 -43.27658939 1140.12584114 C-43.27658939 1139.46584114 -43.27658939 1138.80584114 -43.27658939 1138.12584114 C-45.91658939 1137.79584114 -48.55658939 1137.46584114 -51.27658939 1137.12584114 C-51.27658939 1136.46584114 -51.27658939 1135.80584114 -51.27658939 1135.12584114 C-52.18408939 1135.00209114 -53.09158939 1134.87834114 -54.02658939 1134.75084114 C-56.86629262 1134.20474437 -58.80249531 1133.55320311 -61.27658939 1132.12584114 C-61.27658939 1131.46584114 -61.27658939 1130.80584114 -61.27658939 1130.12584114 C-63.25658939 1129.79584114 -65.23658939 1129.46584114 -67.27658939 1129.12584114 C-67.27658939 1128.46584114 -67.27658939 1127.80584114 -67.27658939 1127.12584114 C-68.92658939 1126.79584114 -70.57658939 1126.46584114 -72.27658939 1126.12584114 C-72.27658939 1125.46584114 -72.27658939 1124.80584114 -72.27658939 1124.12584114 C-73.26658939 1124.12584114 -74.25658939 1124.12584114 -75.27658939 1124.12584114 C-75.27658939 1123.46584114 -75.27658939 1122.80584114 -75.27658939 1122.12584114 C-76.92658939 1121.79584114 -78.57658939 1121.46584114 -80.27658939 1121.12584114 C-80.27658939 1120.46584114 -80.27658939 1119.80584114 -80.27658939 1119.12584114 C-80.93658939 1119.12584114 -81.59658939 1119.12584114 -82.27658939 1119.12584114 C-82.60658939 1118.46584114 -82.93658939 1117.80584114 -83.27658939 1117.12584114 C-83.97783939 1116.71334114 -84.67908939 1116.30084114 -85.40158939 1115.87584114 C-90.12895744 1112.99831277 -94.57370245 1109.25512112 -98.27658939 1105.12584114 C-98.27658939 1104.46584114 -98.27658939 1103.80584114 -98.27658939 1103.12584114 C-98.93658939 1103.12584114 -99.59658939 1103.12584114 -100.27658939 1103.12584114 C-104.27658939 1098.65525291 -104.27658939 1098.65525291 -104.27658939 1096.12584114 C-104.91596439 1095.87834114 -105.55533939 1095.63084114 -106.21408939 1095.37584114 C-108.27658939 1094.12584114 -108.27658939 1094.12584114 -109.02658939 1092.00084114 C-109.10908939 1091.38209114 -109.19158939 1090.76334114 -109.27658939 1090.12584114 C-109.93658939 1090.12584114 -110.59658939 1090.12584114 -111.27658939 1090.12584114 C-114.27658939 1085.74122576 -114.27658939 1085.74122576 -114.27658939 1083.12584114 C-114.93658939 1083.12584114 -115.59658939 1083.12584114 -116.27658939 1083.12584114 C-118.31828424 1080.22035232 -119.27658939 1078.72442068 -119.27658939 1075.12584114 C-119.93658939 1075.12584114 -120.59658939 1075.12584114 -121.27658939 1075.12584114 C-121.60658939 1073.14584114 -121.93658939 1071.16584114 -122.27658939 1069.12584114 C-122.93658939 1069.12584114 -123.59658939 1069.12584114 -124.27658939 1069.12584114 C-127.27658939 1062.50084114 -127.27658939 1062.50084114 -127.27658939 1059.12584114 C-127.93658939 1059.12584114 -128.59658939 1059.12584114 -129.27658939 1059.12584114 C-129.60658939 1056.48584114 -129.93658939 1053.84584114 -130.27658939 1051.12584114 C-130.93658939 1051.12584114 -131.59658939 1051.12584114 -132.27658939 1051.12584114 C-132.27658939 1049.47584114 -132.27658939 1047.82584114 -132.27658939 1046.12584114 C-132.93658939 1046.12584114 -133.59658939 1046.12584114 -134.27658939 1046.12584114 C-134.60658939 1041.83584114 -134.93658939 1037.54584114 -135.27658939 1033.12584114 C-135.93658939 1033.12584114 -136.59658939 1033.12584114 -137.27658939 1033.12584114 C-138.39254463 1025.06895258 -138.41631369 1017.09715943 -138.40243053 1008.97509289 C-138.40347461 1007.43103868 -138.40495656 1005.88698472 -138.4068349 1004.3429313 C-138.41072821 1000.09769096 -138.40839934 995.85247336 -138.40505695 991.60723339 C-138.4025208 986.98953437 -138.40577995 982.37183884 -138.40830028 977.75414032 C-138.41191369 969.66020082 -138.41180134 961.56626799 -138.40925312 953.47232819 C-138.40547412 941.43639062 -138.40740258 929.4004587 -138.41046143 917.36452118 C-138.41573081 895.86935599 -138.41526932 874.37419378 -138.41238252 852.87902831 C-138.40986853 834.06779956 -138.40920953 815.2565719 -138.41040516 796.44534302 C-138.41048154 795.19831447 -138.41055793 793.95128593 -138.41063663 792.66646864 C-138.41094796 787.60456335 -138.41126636 782.54265806 -138.41159639 777.48075277 C-138.41387274 742.1462829 -138.41427277 706.81181332 -138.41053295 671.47734356 C-138.4104627 670.81134478 -138.41039245 670.145346 -138.41032008 669.45916544 C-138.40917512 658.64374947 -138.40795566 647.8283335 -138.4067299 637.01291754 C-138.40187385 594.12013777 -138.4020987 551.22736113 -138.40696049 508.33458138 C-138.40818168 497.52581501 -138.40939273 486.71704865 -138.41053295 475.90828228 C-138.4106034 475.24274569 -138.41067385 474.57720909 -138.41074643 473.89150472 C-138.4145237 437.96079835 -138.41369074 402.03009213 -138.41134822 366.09938568 C-138.4110275 361.0463088 -138.41071466 355.99323191 -138.41040516 350.94015503 C-138.41032608 349.69592918 -138.410247 348.45170333 -138.41016553 347.16977367 C-138.40902742 328.36970893 -138.41035952 309.56964541 -138.41288471 290.76958084 C-138.41574134 269.39513735 -138.41503476 248.02069731 -138.40960397 226.64625425 C-138.40666389 214.67955269 -138.40648148 202.71285858 -138.41025014 190.74615721 C-138.41248895 182.7570448 -138.41110343 174.76793838 -138.40674537 166.77882686 C-138.40436215 162.22416655 -138.40356252 157.66952105 -138.40715136 153.1148612 C-138.41038368 148.97045347 -138.40900624 144.82607368 -138.4039707 140.68166799 C-138.40296451 139.19264387 -138.40362707 137.70361743 -138.40617663 136.21459516 C-138.41851863 128.45515116 -138.27671398 120.82737441 -137.27658939 113.12584114 C-136.61658939 113.12584114 -135.95658939 113.12584114 -135.27658939 113.12584114 C-134.94658939 108.83584114 -134.61658939 104.54584114 -134.27658939 100.12584114 C-133.61658939 100.12584114 -132.95658939 100.12584114 -132.27658939 100.12584114 C-132.27658939 98.47584114 -132.27658939 96.82584114 -132.27658939 95.12584114 C-131.61658939 95.12584114 -130.95658939 95.12584114 -130.27658939 95.12584114 C-129.94658939 92.48584114 -129.61658939 89.84584114 -129.27658939 87.12584114 C-128.61658939 87.12584114 -127.95658939 87.12584114 -127.27658939 87.12584114 C-127.15283939 86.21834114 -127.02908939 85.31084114 -126.90158939 84.37584114 C-126.35549262 81.53613791 -125.70395137 79.59993523 -124.27658939 77.12584114 C-123.61658939 77.12584114 -122.95658939 77.12584114 -122.27658939 77.12584114 C-121.94658939 75.14584114 -121.61658939 73.16584114 -121.27658939 71.12584114 C-120.61658939 71.12584114 -119.95658939 71.12584114 -119.27658939 71.12584114 C-119.15283939 70.54834114 -119.02908939 69.97084114 -118.90158939 69.37584114 C-118.27010115 67.10248347 -117.38800749 65.20048825 -116.27658939 63.12584114 C-115.61658939 63.12584114 -114.95658939 63.12584114 -114.27658939 63.12584114 C-114.00846439 62.36271614 -113.74033939 61.59959114 -113.46408939 60.81334114 C-112.29133448 58.1592116 -111.31977577 57.08730007 -109.27658939 55.12584114 C-108.76096439 54.23896614 -108.24533939 53.35209114 -107.71408939 52.43834114 C-107.23971439 51.67521614 -106.76533939 50.91209114 -106.27658939 50.12584114 C-105.61658939 50.12584114 -104.95658939 50.12584114 -104.27658939 50.12584114 C-104.18377689 49.25959114 -104.18377689 49.25959114 -104.08908939 48.37584114 C-102.94274765 45.20135631 -101.01702097 43.99735539 -98.27658939 42.12584114 C-97.61658939 42.12584114 -96.95658939 42.12584114 -96.27658939 42.12584114 C-96.18377689 41.25959114 -96.18377689 41.25959114 -96.08908939 40.37584114 C-94.94274765 37.20135631 -93.01702097 35.99735539 -90.27658939 34.12584114 C-89.61658939 34.12584114 -88.95658939 34.12584114 -88.27658939 34.12584114 C-88.00846439 33.48646614 -87.74033939 32.84709114 -87.46408939 32.18834114 C-86.27658939 30.12584114 -86.27658939 30.12584114 -83.27658939 29.12584114 C-82.31752689 28.13584114 -82.31752689 28.13584114 -81.33908939 27.12584114 C-79.21984224 25.0708136 -78.13911025 24.53477269 -75.27658939 24.12584114 C-75.27658939 23.46584114 -75.27658939 22.80584114 -75.27658939 22.12584114 C-72.37110057 20.08414629 -70.87516894 19.12584114 -67.27658939 19.12584114 C-67.27658939 18.46584114 -67.27658939 17.80584114 -67.27658939 17.12584114 C-65.29658939 16.79584114 -63.31658939 16.46584114 -61.27658939 16.12584114 C-61.27658939 15.46584114 -61.27658939 14.80584114 -61.27658939 14.12584114 C-54.65158939 11.12584114 -54.65158939 11.12584114 -51.27658939 11.12584114 C-51.27658939 10.46584114 -51.27658939 9.80584114 -51.27658939 9.12584114 C-48.63658939 8.79584114 -45.99658939 8.46584114 -43.27658939 8.12584114 C-43.27658939 7.46584114 -43.27658939 6.80584114 -43.27658939 6.12584114 C-41.62658939 6.12584114 -39.97658939 6.12584114 -38.27658939 6.12584114 C-38.27658939 5.46584114 -38.27658939 4.80584114 -38.27658939 4.12584114 C-33.98658939 3.79584114 -29.69658939 3.46584114 -25.27658939 3.12584114 C-25.27658939 2.46584114 -25.27658939 1.80584114 -25.27658939 1.12584114 C-16.85210248 0.03183347 -8.48298067 -0.0145249 0 0 Z " fill="#72AADE" transform="translate(204.27658939361572,65.87415885925293)"/>
<path d="M0 0 C35.825625 -0.0309375 35.825625 -0.0309375 72.375 -0.0625 C79.90618652 -0.071604 87.43737305 -0.08070801 95.19677734 -0.09008789 C104.41918945 -0.09460449 104.41918945 -0.09460449 108.74160767 -0.09544373 C111.74950911 -0.0963724 114.75739276 -0.10010807 117.76528931 -0.10557556 C121.61103382 -0.11247261 125.45675274 -0.11448414 129.30250287 -0.11307228 C130.70827352 -0.11336719 132.11404513 -0.1153275 133.51981044 -0.11921513 C147.0345686 -0.15483109 158.98304281 1.42577057 172 5 C172.67933594 5.18046875 173.35867188 5.3609375 174.05859375 5.546875 C197.88249414 11.94869084 220.21688064 27.64604775 233 49 C233.34627441 49.57782227 233.69254883 50.15564453 234.04931641 50.75097656 C246.47371452 71.85144982 253.0354548 95.7108598 253.23828125 120.16796875 C253.246353 121.12407547 253.25442474 122.08018219 253.26274109 123.06526184 C253.27650116 125.0847497 253.28725899 127.10426003 253.29516602 129.1237793 C253.30659073 131.14305685 253.326888 133.16230654 253.35668945 135.18139648 C253.6356126 154.15596178 251.9317883 172.66469394 244.8125 190.4375 C244.42304199 191.43628174 244.03358398 192.43506348 243.63232422 193.46411133 C234.15915933 217.02513321 218.02885495 235.36580378 196 248 C195.36578125 248.39832031 194.7315625 248.79664063 194.078125 249.20703125 C174.14127154 261.59354169 148.19545302 265.17863193 125.21850586 265.11352539 C123.8256992 265.11321852 122.43289238 265.11335346 121.04008579 265.11389065 C117.33403511 265.114115 113.62801718 265.10834896 109.92197418 265.10128021 C106.4353272 265.09555537 102.94868789 265.09531547 99.46203613 265.09460449 C89.28718647 265.0893719 79.11234281 265.07541064 68.9375 265.0625 C34.8134375 265.0315625 34.8134375 265.0315625 0 265 C0 177.55 0 90.1 0 0 Z " fill="#FDFEFE" transform="translate(658,856)"/>
<path d="M0 0 C1.1235791 0.35827881 2.2471582 0.71655762 3.40478516 1.08569336 C10.79653333 3.61689427 16.65834973 6.96632902 22.8125 11.75 C23.63258545 12.36141846 24.4526709 12.97283691 25.29760742 13.6027832 C43.48054824 27.20219588 51.4747128 44.543888 55.5 66.5 C55.89095281 70.56590921 55.8125 74.66533823 55.8125 78.75 C30.4025 78.75 4.9925 78.75 -21.1875 78.75 C-21.8475 74.46 -22.5075 70.17 -23.1875 65.75 C-27.90085517 58.20863173 -35.12334242 54.63147615 -43.625 52.4375 C-48.81662155 51.47204055 -53.92844461 51.53057777 -59.1875 51.75 C-60.21746094 51.77964844 -61.24742187 51.80929687 -62.30859375 51.83984375 C-70.17004223 52.24223999 -75.1152573 53.35436334 -80.5625 59.375 C-83.35200387 63.4519672 -83.93244718 66.86350125 -83.1875 71.75 C-80.46807588 78.39593956 -74.43793578 81.85214075 -68.1875 84.75 C-52.05554861 91.23103121 -34.84567596 95.02614894 -17.77734375 98.05859375 C-12.8308044 99.01130046 -8.01179349 100.30884453 -3.1875 101.75 C-3.1875 102.41 -3.1875 103.07 -3.1875 103.75 C-2.23875 103.853125 -1.29 103.95625 -0.3125 104.0625 C6.86372397 105.1063144 13.55300503 107.34302767 19.92578125 110.78515625 C21.84828676 111.8134038 21.84828676 111.8134038 24.125 112.6171875 C37.77687216 118.37161036 49.25651621 128.8805583 57.8125 140.75 C58.328125 141.36746094 58.84375 141.98492188 59.375 142.62109375 C61.18893526 145.30749243 61.96550283 147.89224449 62.875 151 C63.35646484 152.61648438 63.35646484 152.61648438 63.84765625 154.265625 C64.16605469 155.41546875 64.48445312 156.5653125 64.8125 157.75 C65.35970703 159.64492188 65.35970703 159.64492188 65.91796875 161.578125 C67.03755353 166.14397441 67.11648835 170.56719694 67.0625 175.25 C67.05428223 176.12293701 67.04606445 176.99587402 67.03759766 177.89526367 C66.79961888 191.93473215 64.78011537 204.02406023 58.8125 216.75 C58.420625 217.59175781 58.02875 218.43351562 57.625 219.30078125 C49.93163878 234.34023391 37.22516184 244.59374364 22.8125 252.75 C21.1728125 253.68199219 21.1728125 253.68199219 19.5 254.6328125 C10.27408107 259.56611637 0.9355674 262.30448741 -9.1875 264.75 C-10.36054688 265.04777344 -11.53359375 265.34554688 -12.7421875 265.65234375 C-42.07677509 272.58911093 -73.36930411 271.37828804 -102.1875 262.75 C-102.87263672 262.54536133 -103.55777344 262.34072266 -104.26367188 262.12988281 C-128.67047661 254.63302681 -148.96313374 240.89346169 -161.39892578 218.12402344 C-164.64092113 211.88390639 -167.17970328 205.48711058 -169.1875 198.75 C-169.39536133 198.08790527 -169.60322266 197.42581055 -169.81738281 196.74365234 C-171.95877197 188.8475142 -171.1875 182.4800508 -171.1875 173.75 C-144.4575 173.75 -117.7275 173.75 -90.1875 173.75 C-89.1975 179.03 -88.2075 184.31 -87.1875 189.75 C-84.38750911 197.32034573 -79.91876776 202.34055809 -72.65625 206.0390625 C-60.69228039 211.04807387 -43.54211087 212.38297125 -31.2265625 207.7265625 C-24.93138104 204.71162885 -20.62846767 202.08138052 -17.1875 195.75 C-15.44971662 190.53664985 -15.62588566 185.18122165 -16.1875 179.75 C-21.37464846 171.04300081 -36.35994288 167.36520796 -45.5625 164.375 C-46.71588867 163.9941626 -47.86927734 163.6133252 -49.05761719 163.22094727 C-57.77467395 160.39814197 -66.56949145 157.98514105 -75.4375 155.6875 C-103.05772779 148.51659127 -136.41158638 139.59957783 -152.5625 113.75 C-163.12860986 94.6474285 -163.44577262 73.61482576 -158.1875 52.75 C-152.00107448 33.79584521 -138.22510131 17.14368261 -121.1875 6.75 C-117.93774227 5.20188978 -114.61415161 3.90201479 -111.25 2.625 C-109.96706055 2.12419922 -109.96706055 2.12419922 -108.65820312 1.61328125 C-106.96682304 0.9553073 -105.27275194 0.30420464 -103.57592773 -0.33959961 C-102.07272159 -0.91257883 -100.57401659 -1.49765578 -99.08227539 -2.09985352 C-70.05614529 -13.63087993 -28.92215594 -9.27371918 0 0 Z " fill="#FDFEFE" transform="translate(317.1875,858.25)"/>
<path d="M0 0 C29.7 0 59.4 0 90 0 C92.31 5.28 94.62 10.56 97 16 C98.91483783 19.47989253 98.91483783 19.47989253 100.8828125 22.9296875 C102.50312376 25.93236222 103.70860055 29.06061712 104.91015625 32.25 C106.13758693 35.34717275 107.48548744 38.3767756 108.84692383 41.41699219 C110.0948197 44.21240577 111.32418555 47.01548938 112.55078125 49.8203125 C120.64076659 69.13347722 120.64076659 69.13347722 130.15625 87.75 C132 91 132 91 132.5625 93.375 C132.7790625 94.179375 132.7790625 94.179375 133 95 C133.99 95.33 134.98 95.66 136 96 C136.061875 95.236875 136.12375 94.47375 136.1875 93.6875 C137.34487791 88.43478486 139.67197995 83.8278497 142 79 C142.66 79 143.32 79 144 79 C144.061875 78.236875 144.12375 77.47375 144.1875 76.6875 C145.34487791 71.43478486 147.67197995 66.8278497 150 62 C150.66 62 151.32 62 152 62 C152.061875 61.236875 152.12375 60.47375 152.1875 59.6875 C153.34487791 54.43478486 155.67197995 49.8278497 158 45 C158.66 45 159.32 45 160 45 C160.12955078 43.73929688 160.12955078 43.73929688 160.26171875 42.453125 C161.1192972 38.44201734 162.80184392 35.27091443 164.8125 31.75 C167.63928169 26.64727097 170.08497611 21.61360366 172.1328125 16.140625 C172.98090763 14.04712891 173.97036021 12.18844636 175.125 10.25 C177.32900159 6.6802166 177.32900159 6.6802166 179 1 C208.37 1 237.74 1 268 1 C268 2.32 268 3.64 268 5 C267.34 5 266.68 5 266 5 C265.74025391 5.69673828 265.48050781 6.39347656 265.21289062 7.11132812 C263.87688868 10.29320716 262.2890123 13.21277372 260.59375 16.21875 C260.26838257 16.79911011 259.94301514 17.37947021 259.60778809 17.97741699 C258.22626558 20.44142757 256.83766778 22.90142852 255.44970703 25.36181641 C254.43275404 27.1669199 253.419433 28.97402858 252.40625 30.78125 C251.80103516 31.85439453 251.19582031 32.92753906 250.57226562 34.03320312 C249.18555378 36.64986809 248.033306 39.22827843 247 42 C246.34 42 245.68 42 245 42 C244.74025391 42.69673828 244.48050781 43.39347656 244.21289062 44.11132812 C242.87688868 47.29320716 241.2890123 50.21277372 239.59375 53.21875 C239.26838257 53.79911011 238.94301514 54.37947021 238.60778809 54.97741699 C237.22626558 57.44142757 235.83766778 59.90142852 234.44970703 62.36181641 C233.43275404 64.1669199 232.419433 65.97402858 231.40625 67.78125 C230.80103516 68.85439453 230.19582031 69.92753906 229.57226562 71.03320312 C228.18555378 73.64986809 227.033306 76.22827843 226 79 C225.34 79 224.68 79 224 79 C223.73517822 79.70398926 223.47035645 80.40797852 223.19750977 81.13330078 C221.92626107 84.17652242 220.44109249 86.98406539 218.83984375 89.8671875 C217.90229248 91.55702759 217.90229248 91.55702759 216.94580078 93.28100586 C216.2765096 94.47908347 215.6070735 95.67708014 214.9375 96.875 C214.25763303 98.09707729 213.57778282 99.31916391 212.89794922 100.54125977 C208.61206337 108.22510889 204.20024978 115.81420681 199.5390625 123.27734375 C198.22169349 125.60781634 197.44111575 127.38481376 197 130 C196.34 130 195.68 130 195 130 C194.74549072 130.68481445 194.49098145 131.36962891 194.22875977 132.07519531 C192.81336477 135.44424599 191.11261919 138.60767768 189.33984375 141.796875 C188.9899086 142.43111389 188.63997345 143.06535278 188.2794342 143.71881104 C187.54371701 145.05077638 186.80658572 146.38196152 186.06811523 147.71240234 C184.93442668 149.75553874 183.80575583 151.8013866 182.67773438 153.84765625 C181.96123063 155.1433913 181.24444377 156.43896985 180.52734375 157.734375 C180.18879868 158.34786804 179.8502536 158.96136108 179.50144958 159.59344482 C177.1157513 163.8842487 177.1157513 163.8842487 176 165 C175.874595 168.10435737 175.8138673 171.18752496 175.79467773 174.29321289 C175.78477814 175.26871597 175.77487854 176.24421906 175.76467896 177.24928284 C175.73296052 180.49038218 175.70826581 183.73149622 175.68359375 186.97265625 C175.66303314 189.21325574 175.64203692 191.45385127 175.62062073 193.69444275 C175.56530775 199.60455123 175.5159393 205.51469525 175.46777344 211.42486572 C175.40881559 218.50919754 175.34253709 225.59346413 175.27747345 232.677742 C175.17934795 243.45178831 175.09057125 254.2258756 175 265 C147.94 265 120.88 265 93 265 C93.1134375 258.18988281 93.226875 251.37976562 93.34375 244.36328125 C93.3800075 239.98339107 93.41139518 235.60449428 93.42578125 231.22460938 C93.44894033 224.30992381 93.48765836 217.39842196 93.63427734 210.48510742 C94.18046146 183.68430898 94.31288957 162.25786713 78.09565735 140.01074219 C74.36374494 134.64926163 71.39874509 128.87575806 68.3125 123.125 C67.0793845 120.88881155 65.83486106 118.65929766 64.58984375 116.4296875 C63.99026855 115.35428711 63.39069336 114.27888672 62.77294922 113.17089844 C57.36765139 103.50358802 51.90174708 93.87028277 46.43212891 84.23925781 C39.94864793 72.82203548 33.52538074 61.3736333 27.1875 49.875 C26.8567749 49.27509247 26.5260498 48.67518494 26.18530273 48.05709839 C22.6670031 41.67360113 19.15576212 35.28626823 15.65312195 28.89416504 C14.18627934 26.21836386 12.71714509 23.54382464 11.24771118 20.8694458 C10.54697317 19.59254183 9.84738744 18.31500477 9.14901733 17.0368042 C8.17892951 15.26130567 7.20478432 13.48802581 6.23046875 11.71484375 C5.67770264 10.70542725 5.12493652 9.69601074 4.55541992 8.65600586 C3.0746174 6.00424502 3.0746174 6.00424502 1.2980957 3.76782227 C0 2 0 2 0 0 Z " fill="#FEFEFE" transform="translate(378,856)"/>
<path d="M0 0 C55.5482821 0 55.5482821 0 75 18 C77.39382031 20.5080293 79.26297627 23.00553484 81 26 C81.65162109 27.0828125 81.65162109 27.0828125 82.31640625 28.1875 C92.08899813 45.92402497 92.84486397 68.15876932 87.70068359 87.50317383 C87.16637869 89.34521639 86.5846965 91.17332747 86 93 C85.53207031 94.47339844 85.53207031 94.47339844 85.0546875 95.9765625 C82.9681973 101.7801613 79.90219983 106.26819864 76 111 C75.2575 112.03125 74.515 113.0625 73.75 114.125 C69.9942478 118.05146821 65.75120672 120.4282459 61 123 C59.92105469 123.59167969 59.92105469 123.59167969 58.8203125 124.1953125 C40.24759115 133.95141126 22.56644474 129 0 129 C0 86.43 0 43.86 0 0 Z " fill="#72AADE" transform="translate(740,924)"/>
<path d="M0 0 C29.7 0 59.4 0 90 0 C89.67 1.32 89.34 2.64 89 4 C88.505 3.01 88.505 3.01 88 2 C58.96 2 29.92 2 0 2 C0 1.34 0 0.68 0 0 Z " fill="#9CC3E7" transform="translate(558,855)"/>
</svg>
